<?xml version="1.0" standalone="no"?>
<!DOCTYPE svg PUBLIC "-//W3C//DTD SVG 20010904//EN"
 "http://www.w3.org/TR/2001/REC-SVG-20010904/DTD/svg10.dtd">
<svg version="1.0" xmlns="http://www.w3.org/2000/svg"
 width="512.000000pt" height="512.000000pt" viewBox="0 0 512.000000 512.000000"
 preserveAspectRatio="xMidYMid meet">

<g transform="translate(0.000000,512.000000) scale(0.100000,-0.100000)"
fill="#000000" stroke="none">
<path d="M2410 5056 c-491 -273 -2350 -1332 -2368 -1349 -29 -27 -46 -86 -38
-131 9 -48 59 -103 104 -116 25 -6 843 -10 2452 -10 1609 0 2427 4 2452 10 45
13 95 68 104 116 8 45 -9 104 -39 132 -20 19 -2317 1326 -2438 1388 -74 37
-100 32 -229 -40z"/>
<path d="M482 2198 l3 -953 2075 0 2075 0 3 953 2 952 -475 0 -475 0 0 -780 0
-780 -330 0 -330 0 0 780 0 780 -470 0 -470 0 0 -780 0 -780 -330 0 -330 0 0
780 0 780 -475 0 -475 0 2 -952z"/>
<path d="M193 924 c-57 -21 -128 -86 -161 -148 l-27 -51 0 -250 c0 -233 1
-253 21 -296 31 -66 78 -114 142 -146 l57 -28 2335 0 2335 0 46 21 c60 28 125
93 153 153 20 43 21 61 21 296 l0 250 -27 51 c-15 28 -48 70 -73 92 -89 79
133 72 -2459 71 -2022 0 -2326 -2 -2363 -15z"/>
</g>
</svg>
