<?xml version="1.0" standalone="no"?>
<!DOCTYPE svg PUBLIC "-//W3C//DTD SVG 20010904//EN"
 "http://www.w3.org/TR/2001/REC-SVG-20010904/DTD/svg10.dtd">
<svg version="1.0" xmlns="http://www.w3.org/2000/svg"
 width="512.000000pt" height="512.000000pt" viewBox="0 0 512.000000 512.000000"
 preserveAspectRatio="xMidYMid meet">

<g transform="translate(0.000000,512.000000) scale(0.100000,-0.100000)"
fill="#000000" stroke="none">
<path d="M2396 5079 c-506 -70 -923 -436 -1051 -923 -32 -122 -49 -257 -33
-267 25 -16 138 -38 246 -49 368 -37 764 112 1021 385 l54 57 31 -23 c168
-125 342 -204 539 -246 116 -25 379 -23 497 4 l85 19 -2 45 c-1 24 -13 82 -28
129 -137 432 -504 762 -950 855 -96 20 -313 28 -409 14z"/>
<path d="M695 1849 c-172 -25 -332 -106 -455 -229 -99 -99 -173 -228 -212
-368 -21 -74 -22 -100 -26 -625 -3 -488 -1 -551 13 -573 l15 -24 2519 0 c2384
0 2520 1 2540 17 l22 18 -3 575 -3 575 -28 80 c-47 133 -102 220 -207 325 -78
79 -111 104 -187 143 -51 26 -128 58 -170 70 l-78 22 -1840 1 c-1014 1 -1867
-2 -1900 -7z"/>
</g>
</svg>
